<svg width="390" height="62" viewBox="0 0 390 62" fill="none" xmlns="http://www.w3.org/2000/svg">
<g filter="url(#filter0_d_52_363)">
<path d="M195 53.5C247.727 53.5 295.453 50.4785 329.987 45.5967C347.258 43.1552 361.21 40.2512 370.832 37.0352C375.646 35.4262 379.347 33.7487 381.835 32.0303C384.342 30.2984 385.5 28.6088 385.5 27C385.5 25.3912 384.342 23.7016 381.835 21.9697C379.347 20.2513 375.646 18.5738 370.832 16.9648C361.21 13.7488 347.258 10.8448 329.987 8.40332C295.453 3.52147 247.727 0.5 195 0.5C142.273 0.5 94.5473 3.52147 60.0127 8.40332C42.7416 10.8448 28.7905 13.7488 19.168 16.9648C14.3538 18.5738 10.6527 20.2513 8.16504 21.9697C5.65802 23.7016 4.5 25.3912 4.5 27C4.5 28.6088 5.65802 30.2984 8.16504 32.0303C10.6527 33.7487 14.3538 35.4262 19.168 37.0352C28.7905 40.2512 42.7416 43.1552 60.0127 45.5967C94.5473 50.4785 142.273 53.5 195 53.5Z" stroke="url(#paint0_linear_52_363)"/>
<path d="M194.984 52.6534C246.062 52.6534 292.294 49.7267 325.748 44.9981C342.478 42.6333 355.991 39.8207 365.312 36.7061C369.975 35.1476 373.56 33.5229 375.968 31.8594C378.395 30.1827 379.511 28.5503 379.511 27C379.511 25.4498 378.395 23.8174 375.968 22.1407C373.56 20.4772 369.975 18.8524 365.312 17.294C355.991 14.1794 342.478 11.3668 325.748 9.00198C292.294 4.27334 246.062 1.34671 194.984 1.34671C143.907 1.34671 97.6743 4.27334 64.2207 9.00198C47.4906 11.3668 33.9774 14.1793 24.6572 17.294C19.9938 18.8524 16.4092 20.4772 14.001 22.1407C11.5737 23.8174 10.458 25.4498 10.458 27C10.458 28.5503 11.5737 30.1827 14.001 31.8594C16.4092 33.5229 19.9938 35.1476 24.6572 36.7061C33.9774 39.8207 47.4906 42.6333 64.2207 44.9981C97.6743 49.7267 143.907 52.6534 194.984 52.6534Z" stroke="url(#paint1_linear_52_363)"/>
<path d="M194.968 51.8051C244.393 51.8051 289.129 48.973 321.5 44.3979C337.689 42.1098 350.764 39.3886 359.782 36.3754C364.294 34.8677 367.76 33.2971 370.088 31.6889C372.436 30.0674 373.51 28.492 373.51 27.0004C373.51 25.5087 372.436 23.9334 370.088 22.3119C367.76 20.7037 364.294 19.1321 359.782 17.6244C350.764 14.6112 337.689 11.8901 321.5 9.60196C289.129 5.02686 244.393 2.19473 194.968 2.19473C145.543 2.19474 100.807 5.02684 68.437 9.60196C52.2482 11.89 39.1731 14.6112 30.1558 17.6244C25.6437 19.1321 22.1776 20.7037 19.8491 22.3119C17.5014 23.9335 16.4272 25.5087 16.4272 27.0004C16.4274 28.492 17.5016 30.0674 19.8491 31.6889C22.1776 33.297 25.644 34.8678 30.1558 36.3754C39.1731 39.3886 52.2481 42.1098 68.437 44.3979C100.807 48.973 145.543 51.8051 194.968 51.8051Z" stroke="url(#paint2_linear_52_363)"/>
<path d="M194.953 50.9552C242.722 50.9552 285.959 48.2183 317.244 43.797C332.89 41.5858 345.526 38.9565 354.24 36.045C358.6 34.5881 361.949 33.0696 364.198 31.5167C366.466 29.9506 367.498 28.433 367.498 27.0001C367.498 25.5671 366.466 24.0488 364.198 22.4825C361.949 20.9296 358.6 19.412 354.24 17.9552C345.526 15.0437 332.89 12.4134 317.244 10.2022C285.959 5.78092 242.722 3.04502 194.953 3.04501C147.184 3.04501 103.947 5.78093 72.6619 10.2022C57.0154 12.4134 44.3787 15.0436 35.6648 17.9552C31.3047 19.412 27.9563 20.9297 25.7078 22.4825C23.4399 24.0488 22.408 25.5671 22.408 27.0001C22.408 28.4331 23.4401 29.9505 25.7078 31.5167C27.9563 33.0696 31.3046 34.5882 35.6648 36.045C44.3787 38.9566 57.0154 41.5858 72.6619 43.797C103.947 48.2183 147.184 50.9552 194.953 50.9552Z" stroke="url(#paint3_linear_52_363)"/>
<path d="M194.937 50.1037C241.047 50.1037 282.782 47.4627 312.98 43.1955C328.083 41.0613 340.279 38.5227 348.689 35.713C352.897 34.3071 356.128 32.8433 358.297 31.3459C360.484 29.8351 361.474 28.3743 361.474 27.0002C361.474 25.626 360.484 24.1652 358.297 22.6544C356.128 21.157 352.897 19.6922 348.689 18.2863C340.279 15.4766 328.083 12.939 312.98 10.8048C282.782 6.53761 241.047 3.89664 194.937 3.89664C148.827 3.89664 107.092 6.53762 76.8943 10.8048C61.7916 12.939 49.5952 15.4766 41.1853 18.2863C36.977 19.6922 33.7464 21.157 31.5779 22.6544C29.39 24.1653 28.4001 25.6259 28.4001 27.0002C28.4002 28.3743 29.3901 29.8351 31.5779 31.3459C33.7464 32.8433 36.9771 34.3071 41.1853 35.713C49.5952 38.5227 61.7915 41.0613 76.8943 43.1955C107.092 47.4627 148.827 50.1037 194.937 50.1037Z" stroke="url(#paint4_linear_52_363)"/>
<path d="M194.921 49.2505C239.369 49.2505 279.6 46.7052 308.708 42.5923C323.266 40.5354 335.022 38.089 343.127 35.3814C347.183 34.0265 350.295 32.6153 352.383 31.1734C354.491 29.7181 355.439 28.3148 355.439 26.9995C355.439 25.6844 354.491 24.2818 352.383 22.8267C350.295 21.3848 347.183 19.9735 343.127 18.6187C335.022 15.9111 323.266 13.4647 308.708 11.4077C279.6 7.29489 239.369 4.74954 194.921 4.74954C150.473 4.74954 110.243 7.29489 81.1343 11.4077C66.5763 13.4647 54.8206 15.9111 46.7153 18.6187C42.6596 19.9735 39.5478 21.3848 37.4595 22.8267C35.352 24.2818 34.404 25.6844 34.4038 26.9995C34.4038 28.3148 35.3518 29.7181 37.4595 31.1734C39.5478 32.6153 42.6596 34.0265 46.7153 35.3814C54.8206 38.089 66.5763 40.5354 81.1343 42.5923C110.243 46.7052 150.473 49.2505 194.921 49.2505Z" stroke="url(#paint5_linear_52_363)"/>
<path d="M194.905 48.3958C237.687 48.3958 276.41 45.9457 304.427 41.9875C318.44 40.0079 329.754 37.6534 337.554 35.0481C341.458 33.7443 344.452 32.3875 346.46 31.0012C348.487 29.6017 349.392 28.2564 349.392 27.0002C349.392 25.744 348.487 24.398 346.46 22.9983C344.452 21.612 341.458 20.2552 337.554 18.9514C329.754 16.3461 318.44 13.9916 304.427 12.012C276.41 8.05381 237.687 5.60376 194.905 5.60376C152.123 5.60378 113.401 8.05384 85.3835 12.012C71.371 13.9916 60.0568 16.3461 52.2566 18.9514C48.3533 20.2552 45.3593 21.612 43.3513 22.9983C41.324 24.398 40.4187 25.744 40.4187 27.0002C40.4188 28.2564 41.3242 29.6017 43.3513 31.0012C45.3593 32.3875 48.3533 33.7443 52.2566 35.0481C60.0568 37.6534 71.371 40.0079 85.3835 41.9875C113.401 45.9457 152.123 48.3957 194.905 48.3958Z" stroke="url(#paint6_linear_52_363)"/>
<path d="M194.889 47.5394C236.003 47.5394 273.215 45.1853 300.139 41.3821C313.605 39.48 324.477 37.218 331.971 34.7151C335.722 33.4626 338.597 32.159 340.524 30.8284C342.471 29.4847 343.334 28.1973 343.334 27.0003C343.334 25.8032 342.471 24.5151 340.524 23.1712C338.597 21.8407 335.722 20.537 331.971 19.2845C324.477 16.7816 313.605 14.5196 300.139 12.6175C273.215 8.8143 236.003 6.46027 194.889 6.46027C153.775 6.46027 116.563 8.8143 89.6394 12.6175C76.1739 14.5196 65.3027 16.7816 57.8083 19.2845C54.058 20.537 51.1832 21.8407 49.2556 23.1712C47.3087 24.5151 46.4451 25.8032 46.4451 27.0003C46.4452 28.1973 47.3089 29.4846 49.2556 30.8284C51.1832 32.159 54.0579 33.4626 57.8083 34.7151C65.3027 37.218 76.1738 39.48 89.6394 41.3821C116.563 45.1853 153.775 47.5394 194.889 47.5394Z" stroke="url(#paint7_linear_52_363)"/>
<path d="M194.874 46.6814C234.316 46.6814 270.015 44.4231 295.843 40.7751C308.761 38.9507 319.189 36.7818 326.377 34.3816C329.975 33.1804 332.731 31.9307 334.578 30.656C336.444 29.3679 337.264 28.1376 337.264 26.9998C337.264 25.862 336.444 24.6324 334.578 23.3445C332.731 22.0698 329.975 20.8201 326.377 19.6189C319.189 17.2187 308.761 15.0489 295.843 13.2244C270.015 9.57643 234.316 7.31909 194.874 7.31909C155.431 7.3191 119.733 9.57646 93.9048 13.2244C80.9869 15.0488 70.5587 17.2187 63.3706 19.6189C59.7734 20.8201 57.0173 22.0698 55.1704 23.3445C53.3043 24.6325 52.483 25.862 52.4829 26.9998C52.4829 28.1376 53.3042 29.3679 55.1704 30.656C57.0173 31.9306 59.7735 33.1804 63.3706 34.3816C70.5587 36.7818 80.9869 38.9507 93.9048 40.7751C119.733 44.4231 155.431 46.6814 194.874 46.6814Z" stroke="url(#paint8_linear_52_363)"/>
<path d="M194.858 45.8217C232.625 45.8217 266.807 43.6598 291.538 40.1674C303.907 38.4207 313.892 36.3438 320.773 34.0464C324.217 32.8966 326.854 31.7016 328.62 30.4829C330.405 29.2509 331.183 28.0788 331.183 27.0005C331.183 25.922 330.405 24.7492 328.62 23.5171C326.854 22.2983 324.217 21.1033 320.773 19.9536C313.892 17.6562 303.907 15.5792 291.538 13.8325C266.807 10.3402 232.625 8.17821 194.858 8.17819C157.091 8.17819 122.908 10.3401 98.1775 13.8325C85.8084 15.5792 75.8243 17.6562 68.9431 19.9536C65.4992 21.1034 62.8616 22.2983 61.0955 23.5171C59.31 24.7492 58.532 25.922 58.532 27.0005C58.5322 28.0788 59.3103 29.2509 61.0955 30.4829C62.8616 31.7017 65.4992 32.8965 68.9431 34.0464C75.8243 36.3437 85.8084 38.4208 98.1775 40.1674C122.908 43.6598 157.091 45.8217 194.858 45.8217Z" stroke="url(#paint9_linear_52_363)"/>
<path d="M194.842 44.9605C230.931 44.9605 263.594 42.8947 287.226 39.5582C299.045 37.8894 308.585 35.9059 315.158 33.7115C318.448 32.6133 320.965 31.4717 322.65 30.3091C324.355 29.133 325.091 28.0185 325.091 26.9996C325.091 25.9807 324.355 24.8669 322.65 23.691C320.965 22.5284 318.448 21.3868 315.158 20.2886C308.585 18.0943 299.045 16.1107 287.226 14.442C263.594 11.1054 230.931 9.03961 194.842 9.03961C158.752 9.03962 126.089 11.1054 102.458 14.442C90.6389 16.1107 81.1 18.0943 74.5264 20.2886C71.2363 21.3869 68.7184 22.5283 67.0332 23.691C65.3289 24.8669 64.593 25.9807 64.5928 26.9996C64.5928 28.0185 65.3286 29.133 67.0332 30.3091C68.7184 31.4718 71.2363 32.6132 74.5264 33.7115C81.1 35.9058 90.6389 37.8894 102.458 39.5582C126.089 42.8947 158.752 44.9605 194.842 44.9605Z" stroke="url(#paint10_linear_52_363)"/>
<path d="M194.826 44.0977C229.234 44.0977 260.375 42.1286 282.905 38.9482C294.173 37.3575 303.267 35.4671 309.533 33.376C312.669 32.3293 315.066 31.2413 316.67 30.1348C318.294 29.0148 318.987 27.9593 318.987 27C318.987 26.0407 318.294 24.9852 316.67 23.8652C315.066 22.7587 312.669 21.6707 309.533 20.624C303.267 18.5329 294.173 16.6425 282.905 15.0518C260.375 11.8714 229.234 9.90234 194.826 9.90234C160.417 9.90235 129.276 11.8714 106.747 15.0518C95.4784 16.6424 86.3852 18.5329 80.1196 20.624C76.9835 21.6707 74.585 22.7587 72.981 23.8652C71.3576 24.9851 70.6646 26.0407 70.6646 27C70.6646 27.9593 71.3576 29.0149 72.981 30.1348C74.585 31.2413 76.9835 32.3293 80.1196 33.376C86.3852 35.4671 95.4784 37.3576 106.747 38.9482C129.276 42.1286 160.417 44.0977 194.826 44.0977Z" stroke="url(#paint11_linear_52_363)"/>
<path d="M194.81 43.2332C227.534 43.2332 257.15 41.3606 278.576 38.3367C289.293 36.8242 297.94 35.0266 303.896 33.0388C306.878 32.0439 309.156 31.0109 310.679 29.9607C312.221 28.897 312.872 27.8994 312.872 26.9998C312.872 26.1002 312.221 25.1025 310.679 24.0388C309.156 22.9887 306.878 21.9556 303.896 20.9607C297.94 18.973 289.293 17.1754 278.576 15.6629C257.15 12.6389 227.534 10.7664 194.81 10.7664C162.086 10.7664 132.47 12.639 111.044 15.6629C100.327 17.1754 91.6806 18.973 85.7236 20.9607C82.7418 21.9557 80.4633 22.9886 78.9404 24.0388C77.3983 25.1025 76.7482 26.1002 76.748 26.9998C76.748 27.8994 77.3983 28.8971 78.9404 29.9607C80.4633 31.011 82.7418 32.0439 85.7236 33.0388C91.6806 35.0266 100.327 36.8242 111.044 38.3367C132.47 41.3606 162.086 43.2332 194.81 43.2332Z" stroke="url(#paint12_linear_52_363)"/>
<path d="M194.794 42.3671C225.83 42.3671 253.918 40.5916 274.238 37.7245C284.402 36.2904 292.602 34.5861 298.25 32.702C301.077 31.759 303.234 30.7798 304.676 29.786C306.137 28.7787 306.745 27.8397 306.745 26.9999C306.745 26.1601 306.137 25.221 304.676 24.2137C303.234 23.2199 301.077 22.2408 298.25 21.2977C292.602 19.4136 284.402 17.7094 274.238 16.2753C253.918 13.4081 225.83 11.6327 194.794 11.6327C163.757 11.6327 135.669 13.4081 115.349 16.2753C105.185 17.7094 96.9856 19.4136 91.3379 21.2977C88.5107 22.2409 86.3526 23.2198 84.9111 24.2137C83.4503 25.221 82.8428 26.1601 82.8428 26.9999C82.8428 27.8396 83.4503 28.7787 84.9111 29.786C86.3526 30.7799 88.5107 31.7589 91.3379 32.702C96.9856 34.5861 105.185 36.2904 115.349 37.7245C135.669 40.5917 163.757 42.3671 194.794 42.3671Z" stroke="url(#paint13_linear_52_363)"/>
<path d="M194.778 41.4993C224.124 41.4993 250.682 39.8208 269.894 37.1107C279.503 35.755 287.255 34.1449 292.593 32.3646C295.265 31.4734 297.302 30.549 298.662 29.6116C300.041 28.6609 300.606 27.78 300.606 27.0003C300.606 26.2205 300.041 25.3399 298.662 24.389C297.302 23.4516 295.265 22.5272 292.593 21.636C287.255 19.8557 279.503 18.2446 269.894 16.889C250.682 14.1788 224.124 12.5003 194.778 12.5003C165.432 12.5003 138.874 14.1788 119.662 16.889C110.052 18.2446 102.301 19.8557 96.9629 21.636C94.2908 22.5272 92.2534 23.4516 90.8936 24.389C89.5142 25.3399 88.9492 26.2205 88.9492 27.0003C88.9494 27.78 89.5144 28.6609 90.8936 29.6116C92.2534 30.549 94.2909 31.4734 96.9629 32.3646C102.301 34.1449 110.052 35.755 119.662 37.1107C138.874 39.8208 165.432 41.4993 194.778 41.4993Z" stroke="url(#paint14_linear_52_363)"/>
<path d="M194.762 40.63C222.414 40.63 247.438 39.0491 265.54 36.4962C274.595 35.2193 281.897 33.7018 286.925 32.0255C289.442 31.1863 291.359 30.3165 292.637 29.4357C293.935 28.5414 294.456 27.7198 294.456 27.0001C294.456 26.2804 293.935 25.4579 292.637 24.5636C291.359 23.6829 289.442 22.8139 286.925 21.9747C281.897 20.2984 274.595 18.781 265.54 17.504C247.438 14.9512 222.414 13.3703 194.762 13.3702C167.11 13.3702 142.085 14.9512 123.983 17.504C114.928 18.781 107.626 20.2985 102.599 21.9747C100.082 22.814 98.1642 23.6828 96.886 24.5636C95.5883 25.4579 95.0667 26.2804 95.0667 27.0001C95.0667 27.7198 95.5885 28.5414 96.886 29.4357C98.1642 30.3165 100.082 31.1862 102.599 32.0255C107.626 33.7018 114.928 35.2193 123.983 36.4962C142.085 39.0491 167.11 40.63 194.762 40.63Z" stroke="url(#paint15_linear_52_363)"/>
<path d="M194.746 39.759C220.701 39.759 244.189 38.2754 261.179 35.8801C269.678 34.682 276.53 33.2589 281.247 31.6868C283.608 30.8996 285.405 30.0842 286.601 29.26C287.817 28.4225 288.295 27.6597 288.295 27.0002C288.295 26.3407 287.817 25.5772 286.601 24.7395C285.405 23.9153 283.608 23.1009 281.247 22.3137C276.53 20.7416 269.678 19.3175 261.179 18.1194C244.189 15.7241 220.701 14.2415 194.746 14.2415C168.79 14.2415 145.302 15.7241 128.312 18.1194C119.813 19.3175 112.961 20.7416 108.245 22.3137C105.883 23.1009 104.086 23.9153 102.89 24.7395C101.674 25.5772 101.196 26.3407 101.196 27.0002C101.196 27.6597 101.675 28.4225 102.89 29.26C104.086 30.0842 105.883 30.8996 108.245 31.6868C112.961 33.2589 119.813 34.682 128.312 35.8801C145.302 38.2754 168.79 39.759 194.746 39.759Z" stroke="url(#paint16_linear_52_363)"/>
<path d="M194.73 38.8864C218.985 38.8864 240.934 37.5007 256.81 35.2634C264.751 34.1442 271.153 32.8151 275.558 31.3474C277.763 30.6125 279.439 29.852 280.553 29.0847C281.687 28.3038 282.122 27.5989 282.122 26.9997C282.122 26.4006 281.687 25.6965 280.553 24.9157C279.439 24.1484 277.764 23.388 275.558 22.653C271.153 21.1853 264.751 19.8562 256.81 18.737C240.934 16.4997 218.985 15.114 194.73 15.114C170.475 15.114 148.526 16.4997 132.65 18.737C124.708 19.8562 118.307 21.1853 113.902 22.653C111.696 23.388 110.02 24.1483 108.906 24.9157C107.772 25.6965 107.336 26.4006 107.336 26.9997C107.336 27.5989 107.772 28.3038 108.906 29.0847C110.02 29.8521 111.696 30.6124 113.902 31.3474C118.307 32.8151 124.708 34.1442 132.65 35.2634C148.526 37.5007 170.475 38.8864 194.73 38.8864Z" stroke="url(#paint17_linear_52_363)"/>
<path d="M194.714 38.0122C217.265 38.0122 237.672 36.7241 252.431 34.6451C259.815 33.6049 265.765 32.3695 269.858 31.0064C271.908 30.3237 273.463 29.6192 274.495 28.9087C275.547 28.1847 275.938 27.5383 275.938 26.9995C275.938 26.4609 275.546 25.8151 274.495 25.0913C273.463 24.3808 271.908 23.6763 269.858 22.9937C265.765 21.6305 259.815 20.3951 252.431 19.355C237.672 17.2759 217.265 15.9878 194.714 15.9878C172.162 15.9878 151.755 17.2759 136.995 19.355C129.611 20.3951 123.661 21.6305 119.568 22.9937C117.519 23.6762 115.964 24.381 114.932 25.0913C113.881 25.8152 113.488 26.4609 113.488 26.9995C113.488 27.5383 113.881 28.1847 114.932 28.9087C115.964 29.6191 117.519 30.3238 119.568 31.0064C123.661 32.3695 129.611 33.6049 136.995 34.6451C151.755 36.7242 172.162 38.0122 194.714 38.0122Z" stroke="url(#paint18_linear_52_363)"/>
<path d="M194.697 37.1364C215.543 37.1364 234.404 35.9467 248.046 34.026C254.87 33.0652 260.368 31.9241 264.148 30.6657C266.042 30.0354 267.475 29.3856 268.425 28.7321C269.394 28.065 269.743 27.4778 269.743 26.9997C269.743 26.5216 269.394 25.9351 268.425 25.2682C267.475 24.6147 266.042 23.9649 264.148 23.3346C260.368 22.0762 254.87 20.9351 248.046 19.9743C234.404 18.0536 215.543 16.8639 194.697 16.8639C173.852 16.8639 154.989 18.0536 141.348 19.9743C134.523 20.9351 129.026 22.0763 125.246 23.3346C123.353 23.9649 121.92 24.6147 120.97 25.2682C120 25.9351 119.652 26.5215 119.651 26.9997C119.651 27.4778 120 28.065 120.97 28.7321C121.92 29.3856 123.353 30.0354 125.246 30.6657C129.026 31.924 134.523 33.0652 141.348 34.026C154.989 35.9467 173.852 37.1364 194.697 37.1364Z" stroke="url(#paint19_linear_52_363)"/>
<path d="M194.68 36.2589C213.816 36.2589 231.131 35.1673 243.652 33.4054C249.916 32.524 254.96 31.4778 258.427 30.3244C260.164 29.7466 261.476 29.1513 262.344 28.5548C263.23 27.945 263.536 27.4176 263.536 27.0002C263.536 26.5827 263.23 26.0554 262.344 25.4455C261.476 24.849 260.164 24.2537 258.427 23.6759C254.96 22.5225 249.916 21.4763 243.652 20.5949C231.131 18.833 213.816 17.7414 194.68 17.7414C175.545 17.7414 158.23 18.833 145.709 20.5949C139.445 21.4763 134.401 22.5226 130.934 23.6759C129.197 24.2538 127.886 24.849 127.018 25.4455C126.131 26.0555 125.826 26.5827 125.826 27.0002C125.826 27.4176 126.131 27.9449 127.018 28.5548C127.886 29.1513 129.197 29.7466 130.934 30.3244C134.401 31.4777 139.445 32.524 145.709 33.4054C158.23 35.1673 175.545 36.2589 194.68 36.2589Z" stroke="url(#paint20_linear_52_363)"/>
<path d="M194.664 35.3799C212.088 35.3799 227.851 34.387 239.25 32.7842C244.953 31.9823 249.543 31.0307 252.697 29.9824C254.276 29.4573 255.465 28.9171 256.25 28.3779C257.055 27.8251 257.317 27.3566 257.317 27C257.317 26.6434 257.055 26.1749 256.25 25.6221C255.465 25.0829 254.276 24.5427 252.697 24.0176C249.543 22.9693 244.953 22.0177 239.25 21.2158C227.851 19.613 212.088 18.6201 194.664 18.6201C177.241 18.6201 161.477 19.613 150.078 21.2158C144.375 22.0177 139.785 22.9693 136.632 24.0176C135.052 24.5427 133.863 25.0829 133.078 25.6221C132.274 26.1749 132.012 26.6434 132.012 27C132.012 27.3566 132.274 27.8251 133.078 28.3779C133.863 28.9171 135.052 29.4573 136.632 29.9824C139.785 31.0307 144.375 31.9823 150.078 32.7842C161.477 34.387 177.241 35.3799 194.664 35.3799Z" stroke="url(#paint21_linear_52_363)"/>
<path d="M194.648 34.4992C210.355 34.4992 224.566 33.6047 234.84 32.1613C239.981 31.439 244.116 30.5817 246.955 29.6388C248.377 29.1663 249.445 28.6822 250.147 28.2003C250.869 27.7048 251.086 27.2957 251.086 27.0002C251.086 26.7045 250.869 26.2956 250.147 25.8C249.445 25.318 248.377 24.8331 246.955 24.3605C244.116 23.4176 239.981 22.5612 234.84 21.839C224.566 20.3956 210.355 19.5011 194.648 19.5011C178.941 19.5011 164.73 20.3956 154.456 21.839C149.315 22.5612 145.18 23.4176 142.341 24.3605C140.919 24.8331 139.851 25.318 139.149 25.8C138.427 26.2955 138.209 26.7046 138.209 27.0002C138.21 27.2957 138.427 27.7048 139.149 28.2003C139.851 28.6823 140.919 29.1663 142.341 29.6388C145.18 30.5817 149.315 31.4391 154.456 32.1613C164.73 33.6047 178.941 34.4992 194.648 34.4992Z" stroke="url(#paint22_linear_52_363)"/>
<path d="M194.632 33.6169C208.621 33.6168 221.275 32.8205 230.422 31.5368C235 30.8944 238.679 30.1329 241.203 29.2956C242.468 28.8758 243.414 28.4467 244.033 28.0221C244.672 27.5839 244.845 27.2341 244.845 26.9997C244.845 26.7653 244.671 26.4161 244.033 25.9782C243.414 25.5536 242.468 25.1245 241.203 24.7047C238.679 23.8674 235 23.105 230.422 22.4626C221.275 21.1788 208.621 20.3835 194.632 20.3835C180.644 20.3835 167.989 21.1788 158.841 22.4626C154.264 23.105 150.585 23.8674 148.061 24.7047C146.796 25.1245 145.851 25.5537 145.232 25.9782C144.593 26.4163 144.419 26.7652 144.418 26.9997C144.418 27.2341 144.593 27.5838 145.232 28.0221C145.851 28.4466 146.796 28.8759 148.061 29.2956C150.585 30.1329 154.264 30.8944 158.841 31.5368C167.989 32.8205 180.644 33.6169 194.632 33.6169Z" stroke="url(#paint23_linear_52_363)"/>
<path d="M194.615 32.7329C206.881 32.7329 217.977 32.0365 225.996 30.9126C230.009 30.3502 233.231 29.6833 235.439 28.9517C236.547 28.5847 237.37 28.2104 237.906 27.8433C238.462 27.4625 238.592 27.1726 238.592 26.9995C238.592 26.8264 238.462 26.5372 237.906 26.1568C237.37 25.7897 236.547 25.4153 235.439 25.0484C233.231 24.3167 230.009 23.6498 225.996 23.0874C217.977 21.9636 206.881 21.2671 194.615 21.2671C182.349 21.2671 171.255 21.9636 163.235 23.0874C159.222 23.6499 155.999 24.3167 153.791 25.0484C152.684 25.4153 151.861 25.7897 151.325 26.1568C150.77 26.5373 150.639 26.8264 150.639 26.9995C150.639 27.1726 150.769 27.4624 151.325 27.8433C151.861 28.2103 152.684 28.5848 153.791 28.9517C155.999 29.6834 159.222 30.3502 163.235 30.9126C171.255 32.0364 182.349 32.7329 194.615 32.7329Z" stroke="url(#paint24_linear_52_363)"/>
<path d="M194.599 31.8474C205.14 31.8474 214.673 31.2494 221.562 30.2859C225.01 29.8036 227.774 29.2329 229.666 28.6071C230.616 28.2932 231.316 27.9743 231.769 27.6648C232.242 27.3413 232.327 27.1112 232.327 26.9997C232.327 26.8881 232.242 26.6579 231.769 26.3347C231.316 26.0252 230.616 25.7072 229.666 25.3933C227.774 24.7676 225.01 24.1959 221.562 23.7136C214.673 22.75 205.14 22.153 194.599 22.153C184.058 22.1531 174.526 22.7501 167.637 23.7136C164.189 24.1959 161.424 24.7675 159.531 25.3933C158.582 25.7073 157.882 26.0252 157.429 26.3347C156.956 26.6579 156.871 26.8881 156.87 26.9997C156.87 27.1112 156.956 27.3414 157.429 27.6648C157.882 27.9743 158.582 28.2931 159.531 28.6071C161.424 29.2329 164.189 29.8035 167.637 30.2859C174.526 31.2494 184.058 31.8474 194.599 31.8474Z" stroke="url(#paint25_linear_52_363)"/>
<path d="M194.582 30.9602C203.394 30.9602 211.363 30.4615 217.119 29.6584C220.001 29.2564 222.307 28.7807 223.883 28.261C224.674 28.0001 225.251 27.7374 225.62 27.4856C226.01 27.2201 226.052 27.0502 226.052 27.0002C226.052 26.9506 226.01 26.7799 225.62 26.5139C225.251 26.2621 224.674 25.9994 223.883 25.7385C222.307 25.2188 220.001 24.7431 217.119 24.3411C211.363 23.538 203.394 23.0403 194.582 23.0403C185.77 23.0403 177.802 23.538 172.046 24.3411C169.164 24.7431 166.858 25.2188 165.282 25.7385C164.491 25.9994 163.914 26.2621 163.545 26.5139C163.155 26.7799 163.113 26.9506 163.113 27.0002C163.113 27.0502 163.155 27.2201 163.545 27.4856C163.914 27.7374 164.491 28.0001 165.282 28.261C166.858 28.7807 169.164 29.2564 172.046 29.6584C177.802 30.4615 185.77 30.9602 194.582 30.9602Z" stroke="url(#paint26_linear_52_363)"/>
<path d="M194.566 30.0714C201.647 30.0714 208.047 29.6726 212.669 29.0304C214.983 28.7088 216.83 28.3286 218.089 27.9152C218.721 27.7073 219.176 27.5 219.462 27.3058C219.603 27.2095 219.685 27.1291 219.728 27.0704C219.749 27.0426 219.758 27.0232 219.761 27.0128C219.763 27.0077 219.764 27.0037 219.764 27.0021V26.9972C219.764 26.9955 219.763 26.9923 219.761 26.9874C219.758 26.9771 219.749 26.9578 219.728 26.9298C219.685 26.8711 219.604 26.7899 219.462 26.6935C219.176 26.4993 218.721 26.2929 218.089 26.0851C216.83 25.6716 214.983 25.2915 212.669 24.9698C208.047 24.3276 201.647 23.9288 194.566 23.9288C187.485 23.9288 181.085 24.3276 176.464 24.9698C174.149 25.2915 172.302 25.6716 171.044 26.0851C170.411 26.2929 169.957 26.4993 169.671 26.6935C169.529 26.79 169.447 26.8711 169.404 26.9298C169.384 26.9578 169.375 26.9771 169.371 26.9874C169.369 26.9923 169.368 26.9955 169.368 26.9972V27.0021C169.368 27.0037 169.369 27.0077 169.371 27.0128C169.375 27.0232 169.384 27.0426 169.404 27.0704C169.447 27.1291 169.529 27.2095 169.671 27.3058C169.957 27.5 170.411 27.7073 171.044 27.9152C172.302 28.3286 174.149 28.7088 176.464 29.0304C181.085 29.6726 187.485 30.0714 194.566 30.0714Z" stroke="url(#paint27_linear_52_363)"/>
<path d="M194.55 29.181C199.896 29.181 204.725 28.8818 208.21 28.4007C209.956 28.1596 211.344 27.8757 212.284 27.5687C212.758 27.4141 213.089 27.2628 213.291 27.1263C213.373 27.071 213.417 27.0274 213.441 27.0003C213.417 26.9732 213.373 26.9298 213.291 26.8743C213.089 26.7378 212.758 26.5866 212.284 26.4319C211.344 26.1249 209.956 25.841 208.21 25.5999C204.725 25.1188 199.896 24.8187 194.55 24.8187C189.204 24.8187 184.373 25.1188 180.889 25.5999C179.143 25.841 177.755 26.1249 176.814 26.4319C176.341 26.5866 176.01 26.7378 175.808 26.8743C175.725 26.9303 175.68 26.9733 175.656 27.0003C175.681 27.0274 175.725 27.0705 175.808 27.1263C176.01 27.2628 176.341 27.414 176.814 27.5687C177.755 27.8757 179.143 28.1596 180.889 28.4007C184.373 28.8819 189.204 29.181 194.55 29.181Z" stroke="url(#paint28_linear_52_363)"/>
<path d="M194.533 28.2889C198.141 28.2889 201.398 28.0892 203.744 27.7694C204.921 27.609 205.848 27.4212 206.471 27.2206C206.714 27.1423 206.892 27.0663 207.016 26.9999C206.892 26.9335 206.714 26.8575 206.471 26.7792C205.848 26.5785 204.921 26.3908 203.744 26.2303C201.398 25.9105 198.141 25.7108 194.533 25.7108C190.925 25.7108 187.668 25.9105 185.322 26.2303C184.146 26.3908 183.218 26.5785 182.596 26.7792C182.352 26.8578 182.172 26.9333 182.049 26.9999C182.172 27.0665 182.352 27.1419 182.596 27.2206C183.218 27.4212 184.146 27.609 185.322 27.7694C187.668 28.0892 190.925 28.2889 194.533 28.2889Z" stroke="url(#paint29_linear_52_363)"/>
<mask id="path-31-inside-1_52_363" fill="white">
<ellipse cx="6.81671" cy="0.895281" rx="6.81671" ry="0.895281" transform="matrix(1 0 0 -1 187.7 27.8953)"/>
</mask>
<path d="M201.333 27H200.333C200.333 27.2426 200.431 27.4214 200.507 27.5202C200.577 27.6112 200.643 27.6538 200.655 27.6612C200.675 27.6743 200.641 27.6498 200.501 27.6065C200.237 27.5244 199.803 27.4368 199.207 27.3584C198.028 27.2037 196.37 27.1047 194.517 27.1047V26.1047V25.1047C196.429 25.1047 198.178 25.2062 199.467 25.3755C200.104 25.4591 200.669 25.5644 201.094 25.6965C201.3 25.7603 201.533 25.8483 201.735 25.978C201.882 26.0723 202.333 26.3931 202.333 27H201.333ZM194.517 26.1047V27.1047C192.664 27.1047 191.005 27.2037 189.827 27.3584C189.23 27.4368 188.797 27.5244 188.532 27.6065C188.393 27.6498 188.358 27.6743 188.379 27.6612C188.39 27.6538 188.456 27.6112 188.526 27.5202C188.603 27.4214 188.7 27.2426 188.7 27H187.7H186.7C186.7 26.3931 187.151 26.0723 187.298 25.978C187.5 25.8483 187.734 25.7603 187.939 25.6965C188.365 25.5644 188.929 25.4591 189.566 25.3755C190.855 25.2062 192.605 25.1047 194.517 25.1047V26.1047ZM187.7 27H188.7C188.7 26.7574 188.603 26.5787 188.526 26.4798C188.456 26.3888 188.39 26.3463 188.379 26.3389C188.358 26.3257 188.393 26.3502 188.532 26.3935C188.797 26.4756 189.23 26.5633 189.827 26.6416C191.005 26.7964 192.664 26.8953 194.517 26.8953V27.8953V28.8953C192.605 28.8953 190.855 28.7938 189.566 28.6246C188.929 28.5409 188.365 28.4356 187.939 28.3035C187.734 28.2397 187.5 28.1517 187.298 28.022C187.151 27.9278 186.7 27.6069 186.7 27H187.7ZM194.517 27.8953V26.8953C196.37 26.8953 198.028 26.7964 199.207 26.6416C199.803 26.5633 200.237 26.4756 200.501 26.3935C200.641 26.3502 200.675 26.3257 200.655 26.3389C200.643 26.3463 200.577 26.3888 200.507 26.4798C200.431 26.5787 200.333 26.7574 200.333 27H201.333H202.333C202.333 27.6069 201.882 27.9278 201.735 28.022C201.533 28.1517 201.3 28.2397 201.094 28.3035C200.669 28.4356 200.104 28.5409 199.467 28.6246C198.178 28.7938 196.429 28.8953 194.517 28.8953V27.8953Z" fill="url(#paint30_linear_52_363)" mask="url(#path-31-inside-1_52_363)"/>
</g>
<defs>
<filter id="filter0_d_52_363" x="0" y="0" width="390" height="62" filterUnits="userSpaceOnUse" color-interpolation-filters="sRGB">
<feFlood flood-opacity="0" result="BackgroundImageFix"/>
<feColorMatrix in="SourceAlpha" type="matrix" values="0 0 0 0 0 0 0 0 0 0 0 0 0 0 0 0 0 0 127 0" result="hardAlpha"/>
<feOffset dy="4"/>
<feGaussianBlur stdDeviation="2"/>
<feComposite in2="hardAlpha" operator="out"/>
<feColorMatrix type="matrix" values="0 0 0 0 0 0 0 0 0 0 0 0 0 0 0 0 0 0 0.25 0"/>
<feBlend mode="normal" in2="BackgroundImageFix" result="effect1_dropShadow_52_363"/>
<feBlend mode="normal" in="SourceGraphic" in2="effect1_dropShadow_52_363" result="shape"/>
</filter>
<linearGradient id="paint0_linear_52_363" x1="4" y1="27" x2="386" y2="27" gradientUnits="userSpaceOnUse">
<stop stop-color="#010101"/>
<stop offset="1" stop-color="#848484"/>
</linearGradient>
<linearGradient id="paint1_linear_52_363" x1="9.95801" y1="27" x2="380.011" y2="27" gradientUnits="userSpaceOnUse">
<stop stop-color="#010101"/>
<stop offset="1" stop-color="#848484"/>
</linearGradient>
<linearGradient id="paint2_linear_52_363" x1="15.9272" y1="27" x2="374.01" y2="27" gradientUnits="userSpaceOnUse">
<stop stop-color="#010101"/>
<stop offset="1" stop-color="#848484"/>
</linearGradient>
<linearGradient id="paint3_linear_52_363" x1="21.908" y1="27" x2="367.998" y2="27" gradientUnits="userSpaceOnUse">
<stop stop-color="#010101"/>
<stop offset="1" stop-color="#848484"/>
</linearGradient>
<linearGradient id="paint4_linear_52_363" x1="27.9001" y1="27" x2="361.974" y2="27" gradientUnits="userSpaceOnUse">
<stop stop-color="#010101"/>
<stop offset="1" stop-color="#848484"/>
</linearGradient>
<linearGradient id="paint5_linear_52_363" x1="33.9038" y1="27" x2="355.939" y2="27" gradientUnits="userSpaceOnUse">
<stop stop-color="#010101"/>
<stop offset="1" stop-color="#848484"/>
</linearGradient>
<linearGradient id="paint6_linear_52_363" x1="39.9187" y1="27" x2="349.892" y2="27" gradientUnits="userSpaceOnUse">
<stop stop-color="#010101"/>
<stop offset="1" stop-color="#848484"/>
</linearGradient>
<linearGradient id="paint7_linear_52_363" x1="45.9451" y1="27" x2="343.834" y2="27" gradientUnits="userSpaceOnUse">
<stop stop-color="#010101"/>
<stop offset="1" stop-color="#848484"/>
</linearGradient>
<linearGradient id="paint8_linear_52_363" x1="51.9829" y1="27" x2="337.765" y2="27" gradientUnits="userSpaceOnUse">
<stop stop-color="#010101"/>
<stop offset="1" stop-color="#848484"/>
</linearGradient>
<linearGradient id="paint9_linear_52_363" x1="58.032" y1="27" x2="331.684" y2="27" gradientUnits="userSpaceOnUse">
<stop stop-color="#010101"/>
<stop offset="1" stop-color="#848484"/>
</linearGradient>
<linearGradient id="paint10_linear_52_363" x1="64.0928" y1="27" x2="325.591" y2="27" gradientUnits="userSpaceOnUse">
<stop stop-color="#010101"/>
<stop offset="1" stop-color="#848484"/>
</linearGradient>
<linearGradient id="paint11_linear_52_363" x1="70.1646" y1="27" x2="319.487" y2="27" gradientUnits="userSpaceOnUse">
<stop stop-color="#010101"/>
<stop offset="1" stop-color="#848484"/>
</linearGradient>
<linearGradient id="paint12_linear_52_363" x1="76.248" y1="27" x2="313.372" y2="27" gradientUnits="userSpaceOnUse">
<stop stop-color="#010101"/>
<stop offset="1" stop-color="#848484"/>
</linearGradient>
<linearGradient id="paint13_linear_52_363" x1="82.3428" y1="27" x2="307.245" y2="27" gradientUnits="userSpaceOnUse">
<stop stop-color="#010101"/>
<stop offset="1" stop-color="#848484"/>
</linearGradient>
<linearGradient id="paint14_linear_52_363" x1="88.4492" y1="27" x2="301.107" y2="27" gradientUnits="userSpaceOnUse">
<stop stop-color="#010101"/>
<stop offset="1" stop-color="#848484"/>
</linearGradient>
<linearGradient id="paint15_linear_52_363" x1="94.5667" y1="27" x2="294.957" y2="27" gradientUnits="userSpaceOnUse">
<stop stop-color="#010101"/>
<stop offset="1" stop-color="#848484"/>
</linearGradient>
<linearGradient id="paint16_linear_52_363" x1="100.696" y1="27" x2="288.795" y2="27" gradientUnits="userSpaceOnUse">
<stop stop-color="#010101"/>
<stop offset="1" stop-color="#848484"/>
</linearGradient>
<linearGradient id="paint17_linear_52_363" x1="106.836" y1="27" x2="282.623" y2="27" gradientUnits="userSpaceOnUse">
<stop stop-color="#010101"/>
<stop offset="1" stop-color="#848484"/>
</linearGradient>
<linearGradient id="paint18_linear_52_363" x1="112.988" y1="27" x2="276.438" y2="27" gradientUnits="userSpaceOnUse">
<stop stop-color="#010101"/>
<stop offset="1" stop-color="#848484"/>
</linearGradient>
<linearGradient id="paint19_linear_52_363" x1="119.151" y1="27" x2="270.243" y2="27" gradientUnits="userSpaceOnUse">
<stop stop-color="#010101"/>
<stop offset="1" stop-color="#848484"/>
</linearGradient>
<linearGradient id="paint20_linear_52_363" x1="125.326" y1="27" x2="264.035" y2="27" gradientUnits="userSpaceOnUse">
<stop stop-color="#010101"/>
<stop offset="1" stop-color="#848484"/>
</linearGradient>
<linearGradient id="paint21_linear_52_363" x1="131.512" y1="27" x2="257.817" y2="27" gradientUnits="userSpaceOnUse">
<stop stop-color="#010101"/>
<stop offset="1" stop-color="#848484"/>
</linearGradient>
<linearGradient id="paint22_linear_52_363" x1="137.709" y1="27" x2="251.587" y2="27" gradientUnits="userSpaceOnUse">
<stop stop-color="#010101"/>
<stop offset="1" stop-color="#848484"/>
</linearGradient>
<linearGradient id="paint23_linear_52_363" x1="143.918" y1="27" x2="245.345" y2="27" gradientUnits="userSpaceOnUse">
<stop stop-color="#010101"/>
<stop offset="1" stop-color="#848484"/>
</linearGradient>
<linearGradient id="paint24_linear_52_363" x1="150.139" y1="27" x2="239.092" y2="27" gradientUnits="userSpaceOnUse">
<stop stop-color="#010101"/>
<stop offset="1" stop-color="#848484"/>
</linearGradient>
<linearGradient id="paint25_linear_52_363" x1="156.37" y1="27" x2="232.828" y2="27" gradientUnits="userSpaceOnUse">
<stop stop-color="#010101"/>
<stop offset="1" stop-color="#848484"/>
</linearGradient>
<linearGradient id="paint26_linear_52_363" x1="162.613" y1="27" x2="226.552" y2="27" gradientUnits="userSpaceOnUse">
<stop stop-color="#010101"/>
<stop offset="1" stop-color="#848484"/>
</linearGradient>
<linearGradient id="paint27_linear_52_363" x1="168.868" y1="27" x2="220.264" y2="27" gradientUnits="userSpaceOnUse">
<stop stop-color="#010101"/>
<stop offset="1" stop-color="#848484"/>
</linearGradient>
<linearGradient id="paint28_linear_52_363" x1="175.134" y1="27" x2="213.965" y2="27" gradientUnits="userSpaceOnUse">
<stop stop-color="#010101"/>
<stop offset="1" stop-color="#848484"/>
</linearGradient>
<linearGradient id="paint29_linear_52_363" x1="181.411" y1="27" x2="207.655" y2="27" gradientUnits="userSpaceOnUse">
<stop stop-color="#010101"/>
<stop offset="1" stop-color="#848484"/>
</linearGradient>
<linearGradient id="paint30_linear_52_363" x1="187.7" y1="27" x2="201.333" y2="27" gradientUnits="userSpaceOnUse">
<stop stop-color="#010101"/>
<stop offset="1" stop-color="#848484"/>
</linearGradient>
</defs>
</svg>
