<svg width="1727" height="982" viewBox="0 0 1727 982" fill="none" xmlns="http://www.w3.org/2000/svg">
<g clip-path="url(#clip0_50_304)" filter="url(#filter0_n_50_304)">
<rect width="1727" height="982" fill="white"/>
<line x1="0.000323834" y1="49.75" x2="1727" y2="51.987" stroke="#3C3939" stroke-width="0.5"/>
<line y1="933.75" x2="1727" y2="933.75" stroke="#3C3939" stroke-width="0.5"/>
<g filter="url(#filter1_g_50_304)">
<path d="M49.5 42L50.5763 45.4716C51.1911 47.4544 52.4724 49.1637 54.2032 50.31L56 51.5L54.2032 52.69C52.4724 53.8363 51.1911 55.5456 50.5763 57.5284L49.5 61L48.4237 57.5284C47.8089 55.5456 46.5276 53.8363 44.7968 52.69L43 51.5L44.7968 50.31C46.5276 49.1637 47.8089 47.4544 48.4237 45.4716L49.5 42Z" fill="#3C3939"/>
</g>
<g filter="url(#filter2_g_50_304)">
<path d="M49.5 922L50.5763 925.472C51.1911 927.454 52.4724 929.164 54.2032 930.31L56 931.5L54.2032 932.69C52.4724 933.836 51.1911 935.546 50.5763 937.528L49.5 941L48.4237 937.528C47.8089 935.546 46.5276 933.836 44.7968 932.69L43 931.5L44.7968 930.31C46.5276 929.164 47.8089 927.454 48.4237 925.472L49.5 922Z" fill="#3C3939"/>
</g>
<g filter="url(#filter3_g_50_304)">
<path d="M1679.5 40L1680.58 43.4716C1681.19 45.4544 1682.47 47.1637 1684.2 48.31L1686 49.5L1684.2 50.69C1682.47 51.8363 1681.19 53.5456 1680.58 55.5284L1679.5 59L1678.42 55.5284C1677.81 53.5456 1676.53 51.8363 1674.8 50.69L1673 49.5L1674.8 48.31C1676.53 47.1637 1677.81 45.4544 1678.42 43.4716L1679.5 40Z" fill="#3C3939"/>
</g>
<g filter="url(#filter4_g_50_304)">
<path d="M1678.5 924L1679.58 927.472C1680.19 929.454 1681.47 931.164 1683.2 932.31L1685 933.5L1683.2 934.69C1681.47 935.836 1680.19 937.546 1679.58 939.528L1678.5 943L1677.42 939.528C1676.81 937.546 1675.53 935.836 1673.8 934.69L1672 933.5L1673.8 932.31C1675.53 931.164 1676.81 929.454 1677.42 927.472L1678.5 924Z" fill="#3C3939"/>
</g>
<line x1="1678.75" y1="982" x2="1678.75" stroke="#3C3939" stroke-width="0.5"/>
<line x1="48.75" y1="982" x2="48.75" stroke="#3C3939" stroke-width="0.5"/>
</g>
<defs>
<filter id="filter0_n_50_304" x="0" y="0" width="1727" height="982" filterUnits="userSpaceOnUse" color-interpolation-filters="sRGB">
<feFlood flood-opacity="0" result="BackgroundImageFix"/>
<feBlend mode="normal" in="SourceGraphic" in2="BackgroundImageFix" result="shape"/>
<feTurbulence type="fractalNoise" baseFrequency="2 2" stitchTiles="stitch" numOctaves="3" result="noise" seed="5155" />
<feColorMatrix in="noise" type="luminanceToAlpha" result="alphaNoise" />
<feComponentTransfer in="alphaNoise" result="coloredNoise1">
<feFuncA type="discrete" tableValues="1 1 1 1 1 1 1 1 1 1 1 1 1 1 1 1 1 1 1 1 1 1 1 1 1 1 1 1 1 1 1 1 1 1 1 1 1 1 1 1 1 1 1 1 1 1 1 1 1 1 1 0 0 0 0 0 0 0 0 0 0 0 0 0 0 0 0 0 0 0 0 0 0 0 0 0 0 0 0 0 0 0 0 0 0 0 0 0 0 0 0 0 0 0 0 0 0 0 0 0 "/>
</feComponentTransfer>
<feComposite operator="in" in2="shape" in="coloredNoise1" result="noise1Clipped" />
<feFlood flood-color="rgba(0, 0, 0, 0.25)" result="color1Flood" />
<feComposite operator="in" in2="noise1Clipped" in="color1Flood" result="color1" />
<feMerge result="effect1_noise_50_304">
<feMergeNode in="shape" />
<feMergeNode in="color1" />
</feMerge>
</filter>
<filter id="filter1_g_50_304" x="39" y="38" width="21" height="27" filterUnits="userSpaceOnUse" color-interpolation-filters="sRGB">
<feFlood flood-opacity="0" result="BackgroundImageFix"/>
<feBlend mode="normal" in="SourceGraphic" in2="BackgroundImageFix" result="shape"/>
<feTurbulence type="fractalNoise" baseFrequency="10 10" numOctaves="3" seed="9949" />
<feDisplacementMap in="shape" scale="8" xChannelSelector="R" yChannelSelector="G" result="displacedImage" width="100%" height="100%" />
<feMerge result="effect1_texture_50_304">
<feMergeNode in="displacedImage"/>
</feMerge>
</filter>
<filter id="filter2_g_50_304" x="39" y="918" width="21" height="27" filterUnits="userSpaceOnUse" color-interpolation-filters="sRGB">
<feFlood flood-opacity="0" result="BackgroundImageFix"/>
<feBlend mode="normal" in="SourceGraphic" in2="BackgroundImageFix" result="shape"/>
<feTurbulence type="fractalNoise" baseFrequency="10 10" numOctaves="3" seed="9949" />
<feDisplacementMap in="shape" scale="8" xChannelSelector="R" yChannelSelector="G" result="displacedImage" width="100%" height="100%" />
<feMerge result="effect1_texture_50_304">
<feMergeNode in="displacedImage"/>
</feMerge>
</filter>
<filter id="filter3_g_50_304" x="1669" y="36" width="21" height="27" filterUnits="userSpaceOnUse" color-interpolation-filters="sRGB">
<feFlood flood-opacity="0" result="BackgroundImageFix"/>
<feBlend mode="normal" in="SourceGraphic" in2="BackgroundImageFix" result="shape"/>
<feTurbulence type="fractalNoise" baseFrequency="10 10" numOctaves="3" seed="9949" />
<feDisplacementMap in="shape" scale="8" xChannelSelector="R" yChannelSelector="G" result="displacedImage" width="100%" height="100%" />
<feMerge result="effect1_texture_50_304">
<feMergeNode in="displacedImage"/>
</feMerge>
</filter>
<filter id="filter4_g_50_304" x="1668" y="920" width="21" height="27" filterUnits="userSpaceOnUse" color-interpolation-filters="sRGB">
<feFlood flood-opacity="0" result="BackgroundImageFix"/>
<feBlend mode="normal" in="SourceGraphic" in2="BackgroundImageFix" result="shape"/>
<feTurbulence type="fractalNoise" baseFrequency="10 10" numOctaves="3" seed="9949" />
<feDisplacementMap in="shape" scale="8" xChannelSelector="R" yChannelSelector="G" result="displacedImage" width="100%" height="100%" />
<feMerge result="effect1_texture_50_304">
<feMergeNode in="displacedImage"/>
</feMerge>
</filter>
<clipPath id="clip0_50_304">
<rect width="1727" height="982" fill="white"/>
</clipPath>
</defs>
</svg>
